<svg height="69" viewBox="0 0 30 69" width="30" xmlns="http://www.w3.org/2000/svg"><path d="m26.9545714 40.9540875v26.4313125c0 .6649875-.5365714 1.2144-1.2068571 1.2144-.6651429 0-1.2025714-.5494125-1.2025714-1.2144v-26.4313125c0-1.04535-.852-1.9069875-1.8994286-1.9069875-1.0414286 0-1.8908572.8616375-1.8908572 1.9069875 0 .6693-.546 1.2100875-1.2094285 1.2100875-.6634286 0-1.2094286-.5407875-1.2094286-1.2100875 0-1.7862375 1.0697143-3.2956125 2.5877143-3.9614625-3.06-4.5738375-4.7597143-9.6177375-5.6717143-13.8207l-5.508 15.709575c-.00428571.008625-.02485714.0181125-.02914286.0215625.19971429.674475 3.59485716 12.7374-.43457143 26.4037125-.40628571 1.3756875-1.65085714 2.2554375-3.00428571 2.2554375-.29057143 0-.59485714-.04485-.88971429-.129375-1.66028571-.48645-2.61-2.2502625-2.11971428-3.9166125 3.204-10.879575.93685714-20.86215.49028571-22.5897375-3.40457143-6.6766125-4.068-12.842625-1.95771428-18.3307125 3.36171428-8.763 12.59828574-12.228525 12.98914284-12.3760125 1.6225714-.598575 3.4397143.2484 4.0251429 1.88025.2108571.57615.1422857 1.933725.1422857 2.0587875 0 .1095375.1131428 12.0810375 6.4465714 20.881125.5897143.826275.5854286 1.888875.084 2.7108375.8828572.7926375 1.4682857 1.9173375 1.4682857 3.203325zm2.9125715-34.770825c0 3.4163625-2.7565715 6.19275-6.1474286 6.19275-3.3977143 0-6.156-2.7712125-6.156-6.19275 0-3.42585 2.7625714-6.1832625 6.1602857-6.1832625 3.3865714 0 6.1431429 2.7574125 6.1431429 6.1832625z" fill="#010002"/></svg>