<svg height="26" viewBox="0 0 30 26" width="30" xmlns="http://www.w3.org/2000/svg"><g fill-rule="evenodd"><ellipse cx="14.949" cy="14.378" rx="3.12" ry="3.113"/><path d="m16.2727273 17.7029767h-2.6475758c-2.2027273 0-3.99484847 1.7885582-3.99484847 3.9858605v3.2312558l.00818182.0501861.22272727.0692325c2.10212118.6554419 3.92878788.8743256 5.43242428.8743256 2.9357575 0 4.6372727-.8356279 4.7424242-.8882325l.2084849-.1061163.0215151.0006046v-3.2315581c.0015152-2.197-1.79-3.9855582-3.9933333-3.9855582z"/><ellipse cx="8.579" cy="5.31" rx="5.034" ry="5.022"/><path d="m21.3181818 10.3316744c2.78 0 5.0330303-2.24930231 5.0330303-5.02253487 0-2.77232558-2.2539394-5.02132558-5.0330303-5.02132558-2.780606 0-5.0333333 2.24839535-5.0333333 5.02132558 0 2.77293024 2.2527273 5.02253487 5.0333333 5.02253487zm-8.8157576 6.8815349c-.7990909-.6874884-1.3072727-1.7026977-1.3072727-2.8352093 0-1.3888837.7633333-2.6012093 1.8918182-3.2478837-.7348485-.2917442-1.5336364-.456814-2.3715152-.456814h-4.27121208c-3.55333333-.0003023-6.44424242 2.885093-6.44424242 6.4295582v5.2123953l.0130303.0813256.35969697.1115581c3.32787879 1.0375814 6.22484849 1.3946279 8.62363637 1.4076279v-2.2272325c0-2.159814 1.49545456-3.9725582 3.50606056-4.4753256zm10.9515152-6.5402093h-4.2706061c-.8378788 0-1.6357575.1650698-2.3709091.456814 1.129394.6466744 1.8927273 1.8583953 1.8927273 3.2478837 0 1.131907-.5084848 2.1471163-1.3069697 2.8346046.8048485.1998372 1.5457576.6106977 2.1478788 1.211721.8751515.8737209 1.3572727 2.0334418 1.3569697 3.2651162v2.2266279c2.3987879-.013 5.2960606-.3703488 8.6233333-1.4076279l.359697-.1115581.0133333-.0813256v-5.2123953c-.0012121-3.5444652-2.8921212-6.4298605-6.4454545-6.4298605z"/></g></svg>