<svg height="48" viewBox="0 0 30 48" width="30" xmlns="http://www.w3.org/2000/svg"><g fill-rule="evenodd"><path d="m15.3165 13.3695c3.57 0 6.462-2.994 6.462-6.681 0-3.6945-2.892-6.6885-6.462-6.6885-3.573 0-6.471 2.994-6.471 6.6885 0 3.687 2.898 6.681 6.471 6.681z"/><path d="m26.7825 19.038c-.321-.975-2.154-3.9315-7.128-3.9585l-9.7365.0255c-4.8285-.27-6.756 2.583-7.0575 3.8475 0 0-3.261 10.4115-2.7015 12.8235.3465 1.497 2.9445 3.3285 5.7105 4.6905l-3.684 11.2245h25.977l-3.5835-11.6175c2.469-1.3065 4.638-2.937 4.9515-4.2975.567-2.4405-2.748-12.738-2.748-12.738zm-15.822 11.4735c-.4515.201-.951.3165-1.4745.3165-2.031 0-3.675-1.671-3.675-3.7305s1.6455-3.729 3.675-3.729c1.9935 0 3.6315 1.614 3.6855 3.627.633-.4545 1.281-.6675 1.767-.756v.0105c.7305-.1395 1.2975 0 1.2975 0 2.451.543 7.8675 2.946 7.8675 2.946s-2.907 3.6-8.187 3.5775c-.138 0-.273-.003-.4005-.009h-.0015c-.486-.012-.9225-.0435-1.3155-.0915-2.493-.294-3.207-1.224-3.2385-2.1615z" fill-rule="nonzero"/></g></svg>