<svg height="61" viewBox="0 0 29 61" width="29" xmlns="http://www.w3.org/2000/svg"><path d="m13.897166 42.2592v17.1713429c0 .6749142-.2286437 1.2346857-.6586032 1.6385714-.4290486.4216-.9901822.6226571-1.6788462.6226571-.6959514 0-1.2898785-.2019428-1.74989879-.6226571-.49281376-.4038857-.71963562-.9636572-.71963562-1.6385714v-17.1713429h-6.61700405l6.88481781-22.6052h-1.18421052c-.75516195 2.5340286-1.39099191 4.5720571-1.88927126 6.1893714-.44817814 1.6093429-.94554656 3.1372-1.37732794 4.6074857-.4909919 1.4516858-.82074898 2.3710572-.85354251 2.6846-.29969635.9592286-.952834 1.4242286-1.97672064 1.4242286l-.52105263-.1222286c-.95465587-.3436571-1.4201417-.9441714-1.4201417-1.7997714 0-.2338286.03370445-.4260286.13026315-.6191143.06831984-.1656285.26599191-.7333714.49736842-1.6970285.26599191-.9556858.62307693-2.1443143 1.05394737-3.5260286.42904859-1.4038572.89362348-2.9237429 1.38006073-4.5543429.49736842-1.6394571.95283401-3.2169143 1.51214575-4.7376857.32975709-1.1647143 1.05394737-2.2266857 2.17439271-3.1442857 1.11589069-.9512571 2.27641701-1.3843714 3.48795542-1.3843714h8.0990891c1.2525304 0 2.4695344.4331143 3.5562753 1.3843714 1.0566802.9220286 1.8163968 1.9786857 2.2399798 3.1442857.4536437 1.5207714.9173077 3.0982286 1.3755061 4.7376857.4691295 1.6306.9619433 3.1504857 1.3581983 4.5543429.4199393 1.3826.7879555 2.5703428 1.04666 3.5260286.2623481.9636571.4317813 1.5314.5237854 1.6970285l.1293522.5066286c0 1.0345143-.4973684 1.6394571-1.4502024 1.9051714l-.4855263.1293143c-1.0493928 0-1.7098179-.4658857-1.972166-1.4242286-.0728745-.3135428-.3680162-1.2338-.7569838-2.6846-.4600203-1.4702857-.9291498-2.9972571-1.4547571-4.6074857-.5265182-1.612-1.1441296-3.6553428-1.8983806-6.1938h-1.1887652l6.8747976 22.6105143h-6.511336v17.1713429c0 .6749143-.1976721 1.2346857-.7241903 1.6385714-.4645749.4216-1.0238867.6226571-1.7098178.6226571-.7241903 0-1.2570851-.2019428-1.7098178-.6226571-.4290486-.4038857-.623077-.9636571-.623077-1.6385714v-17.1722286zm.6513158-30.6979714c1.3864372 0 2.5752024-.4428572 3.4970648-1.3666572.9501012-.94505711 1.4474696-2.11951426 1.4474696-3.53665711 0-1.34805715-.4973684-2.50391429-1.4474696-3.45782858-.9173077-.98137142-2.1106276-1.47028571-3.4970648-1.47028571-1.4766195 0-2.7009109.48891429-3.719332 1.47028571-.98653846.94948572-1.47206478 2.10977143-1.47206478 3.45782858 0 1.41714285.48552632 2.59071428 1.47661948 3.53665711 1.0193319.9238 2.2427125 1.3666572 3.7147773 1.3666572z" fill="#010002" transform="translate(0 -1)"/></svg>