<svg height="64" viewBox="0 0 30 64" width="30" xmlns="http://www.w3.org/2000/svg"><path d="m8.3354067 13.4494286c-2.09605263 0-3.89174641.6685714-5.40753589 1.9592857-1.52117225 1.3492143-2.30275119 2.9185-2.30275119 4.6660714v16.1562143c0 .6054286.24007177 1.1532857.78157894 1.5962143.50167465.4373571 1.12607656.6351428 1.83337321.6351428.8138756 0 1.43827751-.1977857 1.93995215-.6351428.43492823-.4429286.66423445-.9898572.66423445-1.5962143v-14.4467143h1.35430622v39.9972857c0 .7697857.38971292 1.482 1.13145933 2.0298572.6965311.6054285 1.5104067.8654285 2.44700958.8654285 1.0141148 0 1.8279904-.2590714 2.4911483-.8654285.7019139-.5478572 1.0205742-1.2591429 1.0205742-2.0298572v-23.1855h1.5157895v23.1855c0 .7697857.3509569 1.482 1.0098086 2.0298572.6631579.6054285 1.5211722.8654285 2.5697368.8654285.8913876 0 1.6729665-.2590714 2.3748804-.8654285.6577751-.5478572.9592105-1.2591429.9592105-2.0298572v-39.9972857h1.4156699v14.4467143c0 .6054286.2228469 1.1532857.6911483 1.5962143.5576555.4373571 1.2035885.6351428 1.9065789.6351428.8246412 0 1.4490431-.1977857 1.9173445-.6351428.4230862-.4429286.6911484-.9898572.6911484-1.5962143v-16.1552857c0-1.7429286-.7363637-3.3177857-2.2575359-4.6614286-1.4834928-1.2962857-3.2608852-1.9592857-5.4419857-1.9592857h-13.3051435zm6.6886364-1.3287857c1.6342105 0 3.0767942-.4642858 4.2373205-1.4327858 1.1594498-.99542853 1.7504785-2.22578567 1.7504785-3.70778567 0-1.41328572-.5964115-2.62507143-1.7558612-3.62514286-1.1648326-1.02885714-2.6031101-1.54142857-4.2319378-1.54142857-1.7171053 0-3.1607656.51257143-4.2470096 1.54142857-1.15944977 1.00007143-1.70526317 2.21185714-1.70526317 3.62514286 0 1.48571428.5458134 2.71607143 1.70526317 3.70778567 1.0927033.9685 2.5363636 1.4327858 4.2470096 1.4327858z" fill="#010002" transform="translate(0 -1)"/></svg>