<svg height="67" viewBox="0 0 30 67" width="30" xmlns="http://www.w3.org/2000/svg"><g fill="#010002" fill-rule="evenodd"><ellipse cx="15.111" cy="5.592" rx="5.828" ry="5.592"/><path d="m17.1413793 13.8503889c-1.4521552-.2828889-3.0310345-.2704815-4.4573276.0521111-9.68922411 1.0893704-12.8353448 11.8503148-11.94698273 20.0553333.38534482 3.5472778 6.21336206 3.5845 5.82413793 0-.32327587-2.9901852-.1849138-7.5027592 1.47155172-10.710074v11.6939814c0 .1377223.01422414.2667593.02068966.3995186-.00387931.0632777-.01939656.1166296-.01939656.1811481 0 9.2795-.01681034 18.5552778-.41637931 27.8273333-.17715517 4.1217408 6.48362069 4.1056112 6.65948279 0 .312931-7.2670185.3918103-14.5377592.4099138-21.8097407.3155172.0198519.6310344.0198519.9465517.0024815.0193965 7.2719815.0956896 14.5427222.4060345 21.8072592.1771551 4.1056112 6.837931 4.1217408 6.6594827 0-.3995689-9.2720555-.4137931-18.5478333-.4137931-27.8273333 0-.2878518-.0400862-.5496481-.100862-.8015185-.0090518-4.0286852-.1693966-8.0610926-.1202587-12.0872963 1.9836207 3.2222037 2.1646552 8.1367778 1.8206897 11.3217593-.3905172 3.5820185 5.4387931 3.546037 5.8241379 0 .9090517-8.375-2.388362-19.4151112-12.5676724-20.104963z"/></g></svg>